<svg xmlns="http://www.w3.org/2000/svg" viewBox="0 0 240 240" width="240" height="240" role="img" aria-label="Turing Pi cluster icon">
  <defs>
    <linearGradient id="bg" x1="0" y1="0" x2="0" y2="1">
      <stop offset="0" stop-color="#1A2C39"/><stop offset="1" stop-color="#0F1C25"/>
    </linearGradient>
    <linearGradient id="node" x1="0" y1="0" x2="0" y2="1">
      <stop offset="0" stop-color="#6E9DBA"/><stop offset="1" stop-color="#4E7C97"/>
    </linearGradient>
    <linearGradient id="cp" x1="0" y1="0" x2="0" y2="1">
      <stop offset="0" stop-color="#C4683F"/><stop offset="1" stop-color="#974124"/>
    </linearGradient>
  </defs>

  <rect x="1" y="1" width="238" height="238" rx="48" fill="url(#bg)" stroke="#2C4C61" stroke-width="2"/>

  <!-- Centered 2x2 node grid — control plane (terracotta) top-left, workers (Niagara), faint interconnect mesh -->
  <g transform="translate(43,43) scale(1.07)">
    <g stroke="#4E7C97" fill="none" stroke-linecap="round">
      <g opacity="0.5" stroke-width="3">
        <line x1="30" y1="30" x2="114" y2="30"/><line x1="30" y1="114" x2="114" y2="114"/>
        <line x1="30" y1="30" x2="30" y2="114"/><line x1="114" y1="30" x2="114" y2="114"/>
      </g>
      <g opacity="0.26" stroke-width="2">
        <line x1="30" y1="30" x2="114" y2="114"/><line x1="114" y1="30" x2="30" y2="114"/>
      </g>
    </g>
    <g stroke="#EAF2F7" stroke-opacity="0.10" stroke-width="1">
      <rect x="0" y="0" width="60" height="60" rx="13" fill="url(#cp)"/>
      <rect x="84" y="0" width="60" height="60" rx="13" fill="url(#node)"/>
      <rect x="0" y="84" width="60" height="60" rx="13" fill="url(#node)"/>
      <rect x="84" y="84" width="60" height="60" rx="13" fill="url(#node)"/>
    </g>
    <g>
      <circle cx="30" cy="30" r="6" fill="#FBEEE3" opacity="0.92"/>
      <circle cx="114" cy="30" r="6" fill="#EAF2F7" opacity="0.85"/>
      <circle cx="30" cy="114" r="6" fill="#EAF2F7" opacity="0.85"/>
      <circle cx="114" cy="114" r="6" fill="#EAF2F7" opacity="0.85"/>
    </g>
  </g>
</svg>
